<?xml version="1.0" standalone="no"?>
<!DOCTYPE svg PUBLIC "-//W3C//DTD SVG 20010904//EN"
 "http://www.w3.org/TR/2001/REC-SVG-20010904/DTD/svg10.dtd">
<svg version="1.0" xmlns="http://www.w3.org/2000/svg"
 width="512.000000pt" height="512.000000pt" viewBox="0 0 512.000000 512.000000"
 preserveAspectRatio="xMidYMid meet">
<metadata>
Created by potrace 1.11, written by Peter Selinger 2001-2013
</metadata>
<g transform="translate(0.000000,512.000000) scale(0.100000,-0.100000)"
fill="#000000" stroke="none">
<path d="M2440 5112 c-181 -14 -332 -151 -357 -323 -4 -30 -8 -198 -7 -374 l0
-320 -45 -1 c-668 -10 -1307 -357 -1673 -910 -227 -341 -338 -702 -342 -1109
-5 -445 134 -865 408 -1234 66 -87 222 -255 303 -323 34 -29 205 -155 238
-175 60 -37 190 -107 260 -138 74 -34 284 -108 337 -119 13 -3 34 -8 48 -11
14 -3 39 -8 55 -10 17 -3 37 -8 45 -10 50 -13 262 -31 352 -29 152 3 241 25
373 92 73 37 107 63 180 136 50 50 99 107 108 126 10 19 29 53 41 75 46 83 70
191 71 315 0 147 -6 188 -45 289 -85 220 -260 383 -490 457 -109 35 -282 40
-341 11 -126 -63 -179 -219 -117 -344 41 -82 115 -130 212 -139 96 -8 137 -25
192 -78 87 -85 104 -193 46 -299 -49 -91 -125 -131 -247 -130 -325 2 -615 227
-716 553 -19 61 -23 99 -24 200 0 175 30 282 120 421 102 157 266 275 455 326
89 24 304 24 420 -1 459 -95 795 -370 970 -795 16 -41 40 -81 53 -90 76 -55
180 -2 180 92 0 12 -23 68 -50 125 l-50 102 164 0 c134 0 170 3 192 16 74 44
76 142 4 189 -22 15 -49 19 -135 19 l-108 2 -27 39 c-47 70 -139 179 -214 253
l-72 72 724 1 c398 0 736 2 752 4 84 11 199 64 235 107 7 9 16 32 19 52 4 28
0 44 -20 75 -23 34 -36 42 -99 61 -317 95 -510 171 -551 217 -44 50 -26 137
34 168 41 22 76 14 189 -38 169 -79 405 -149 502 -149 55 -1 94 21 109 60 16
41 3 171 -31 309 -72 294 -242 629 -468 922 -58 75 -73 89 -68 66 14 -65 18
-213 8 -275 -19 -113 -22 -123 -72 -226 -128 -266 -394 -429 -695 -426 -261 2
-474 115 -634 334 -23 32 -41 60 -41 63 0 3 -6 18 -14 33 -97 188 -95 466 5
664 112 222 320 374 569 416 50 9 196 8 260 -1 l55 -8 -105 78 c-194 144 -478
309 -640 373 -30 12 -68 28 -85 35 -45 20 -214 73 -292 91 -115 27 -141 31
-268 39 -44 3 -87 7 -95 8 -8 1 -31 1 -50 -1z"/>
<path d="M4088 4129 c-158 -44 -190 -245 -54 -335 31 -21 52 -27 96 -27 119 0
200 90 187 205 -13 108 -127 186 -229 157z"/>
</g>
</svg>
