<?xml version="1.0" encoding="UTF-8" standalone="no"?>
<svg width="430px" height="234px" viewBox="0 0 430 234" version="1.1" xmlns="http://www.w3.org/2000/svg" xmlns:xlink="http://www.w3.org/1999/xlink">
    <!-- Generator: Sketch 3.8.3 (29802) - http://www.bohemiancoding.com/sketch -->
    <title>Portfolio/CustomDataCollection</title>
    <desc>Created with Sketch.</desc>
    <defs>
        <polygon id="path-1" points="0 232 216 232 216 202 0 202"></polygon>
        <mask id="mask-2" maskContentUnits="userSpaceOnUse" maskUnits="objectBoundingBox" x="0" y="0" width="216" height="30" fill="white">
            <use xlink:href="#path-1"></use>
        </mask>
        <polygon id="path-3" points="1 1.5 209 1.5 209 1 1 1"></polygon>
    </defs>
    <g id="Vectors" stroke="none" stroke-width="1" fill="none" fill-rule="evenodd">
        <g id="Portfolio/CustomDataCollection">
            <use id="Fill-1" stroke="#6BBA4C" mask="url(#mask-2)" stroke-width="2" stroke-dasharray="4,2" fill="#F3F3F3" xlink:href="#path-1"></use>
            <g id="Group-13" transform="translate(3.000000, 232.000000)">
                <g id="Group-6">
                    <mask id="mask-4" fill="white">
                        <use xlink:href="#path-3"></use>
                    </mask>
                    <g id="Clip-5"></g>
                </g>
            </g>
            <polygon id="Fill-17" fill="#F3F3F3" points="1 135 250 135 250 105 1 105"></polygon>
            <text id="Text-input" font-family="Poppins-Regular, Poppins" font-size="10" font-weight="normal" fill="#797979">
                <tspan x="15" y="123">Text input</tspan>
            </text>
            <polygon id="Fill-18" fill="#EBEBEB" points="1 181 250 181 250 151 1 151"></polygon>
            <text id="Data-select" font-family="Poppins-Regular, Poppins" font-size="10" font-weight="normal" fill="#797979">
                <tspan x="15" y="169">Data select</tspan>
            </text>
            <g id="Group-2" transform="translate(19.000000, 188.000000)">
                <polygon id="Fill-19" fill="#6BBA4C" points="16 30 242 30 242 0 16 0"></polygon>
                <polygon id="Fill-21" fill="#5BA33C" points="0 30 16 30 16 0 0 0"></polygon>
                <text id="Info-text" font-family="Poppins-Regular, Poppins" font-size="10" font-weight="normal" fill="#FFFFFF">
                    <tspan x="30" y="18">Info text</tspan>
                </text>
            </g>
            <path d="M28,199 C28,199.552 27.552,200 27,200 C26.448,200 26,199.552 26,199 C26,198.448 26.448,198 27,198 C27.552,198 28,198.448 28,199 L28,199 Z" id="Fill-22" fill="#FFFFFF"></path>
            <path d="M28,203 C28,203.552 27.552,204 27,204 C26.448,204 26,203.552 26,203 C26,202.448 26.448,202 27,202 C27.552,202 28,202.448 28,203" id="Fill-24" fill="#FFFFFF"></path>
            <path d="M28,207 C28,207.552 27.552,208 27,208 C26.448,208 26,207.552 26,207 C26,206.448 26.448,206 27,206 C27.552,206 28,206.448 28,207" id="Fill-26" fill="#FFFFFF"></path>
            <g id="Group" transform="translate(259.000000, 0.000000)">
                <polygon id="Fill-28" fill="#F3F3F3" points="0 30 171 30 171 0 0 0"></polygon>
                <text id="Label" font-family="Poppins-Regular, Poppins" font-size="10" font-weight="normal" fill="#797979">
                    <tspan x="15" y="18">Label</tspan>
                </text>
                <polygon id="Fill-31" fill="#EBEBEB" points="0 60 171 60 171 30 0 30"></polygon>
                <text id="Description" font-family="Poppins-Regular, Poppins" font-size="10" font-weight="normal" fill="#797979">
                    <tspan x="15" y="48">Description</tspan>
                </text>
                <polygon id="Fill-37-Copy" fill="#EBEBEB" points="0 120 171 120 171 90 0 90"></polygon>
                <polygon id="Fill-33" fill="#F3F3F3" points="0 90 171 90 171 60 0 60"></polygon>
                <text id="Data-source" font-family="Poppins-Regular, Poppins" font-size="10" font-weight="normal" fill="#797979">
                    <tspan x="15" y="78">Data source</tspan>
                </text>
                <text id="Display" font-family="Poppins-Regular, Poppins" font-size="10" font-weight="normal" fill="#797979">
                    <tspan x="15" y="108">Display</tspan>
                </text>
                <polygon id="Fill-37" fill="#F3F3F3" points="0 150 171 150 171 120 0 120"></polygon>
                <text id="From" font-family="Poppins-Regular, Poppins" font-size="10" font-weight="normal" fill="#797979">
                    <tspan x="15" y="138">From</tspan>
                </text>
                <polygon id="Fill-39" fill="#EBEBEB" points="0 180 171 180 171 150 0 150"></polygon>
                <text id="Filter" font-family="Poppins-Regular, Poppins" font-size="10" font-weight="normal" fill="#797979">
                    <tspan x="15" y="168">Filter</tspan>
                </text>
                <path d="M113.014599,112 L82.9854015,112 C81.8934307,112 81,111.1 81,110 L81,101 C81,99.9 81.8934307,99 82.9854015,99 L113.014599,99 C114.106569,99 115,99.9 115,101 L115,110 C115,111.1 114.106569,112 113.014599,112" id="Fill-41" fill="#DADADA"></path>
                <path d="M150.014599,112 L119.985401,112 C118.893431,112 118,111.1 118,110 L118,101 C118,99.9 118.893431,99 119.985401,99 L150.014599,99 C151.106569,99 152,99.9 152,101 L152,110 C152,111.1 151.106569,112 150.014599,112" id="Fill-43" fill="#DADADA"></path>
                <path d="M171,112 L157,112 C155.872727,112 155,111.1 155,110 L155,101 C155,99.9 155.872727,99 157,99 L171,99 L171,112 Z" id="Fill-45" fill="#DADADA"></path>
                <polygon id="Fill-47" fill="#E3E3E3" points="164 133 160.5 137 157 133"></polygon>
                <polygon id="Fill-49" fill="#DADADA" points="164 163 160.5 167 157 163"></polygon>
            </g>
        </g>
    </g>
</svg>