<?xml version="1.0" encoding="UTF-8" standalone="no"?>
<svg width="424px" height="246px" viewBox="0 0 424 246" version="1.1" xmlns="http://www.w3.org/2000/svg" xmlns:xlink="http://www.w3.org/1999/xlink">
    <!-- Generator: Sketch 3.8.3 (29802) - http://www.bohemiancoding.com/sketch -->
    <title>Portfolio/ExtensiveReporting</title>
    <desc>Created with Sketch.</desc>
    <defs></defs>
    <g id="Vectors" stroke="none" stroke-width="1" fill="none" fill-rule="evenodd">
        <g id="Portfolio/ExtensiveReporting">
            <g id="Page-1">
                <g id="Group-5" transform="translate(16.000000, 4.075000)"></g>
                <polygon id="Fill-6" fill="#EBEBEB" points="0 59.839 342.583 59.839 342.583 30 0 30"></polygon>
                <g id="Group-10" transform="translate(16.000000, 36.000000)" font-size="10" font-family="Poppins-Regular, Poppins" font-weight="normal">
                    <text id="Overdue" fill="#C61785">
                        <tspan x="0.8447" y="11.2514061">Overdue</tspan>
                    </text>
                    <text id="Pending" fill="#929292">
                        <tspan x="88.3716" y="11.2514061">Pending</tspan>
                    </text>
                    <text id="Site-Monthly-..." fill="#797979">
                        <tspan x="171.8877" y="11.2514061">Site Monthly ...</tspan>
                    </text>
                </g>
                <polygon id="Fill-11" fill="#F3F3F3" points="0 89.839 342.583 89.839 342.583 60 0 60"></polygon>
                <g id="Group-15" transform="translate(16.000000, 66.000000)" font-size="10" font-family="Poppins-Regular, Poppins" font-weight="normal">
                    <text id="Overdue" fill="#C61785">
                        <tspan x="0.8447" y="11.0902061">Overdue</tspan>
                    </text>
                    <text id="Doing" fill="#929292">
                        <tspan x="88.3716" y="11.0902061">Doing</tspan>
                    </text>
                    <text id="Environmental-..." fill="#797979">
                        <tspan x="171.8877" y="11.0902061">Environmental ...</tspan>
                    </text>
                </g>
                <polygon id="Fill-16" fill="#EBEBEB" points="0 119.84 342.583 119.84 342.583 90 0 90"></polygon>
                <g id="Group-20" transform="translate(16.000000, 96.000000)" font-size="10" font-family="Poppins-Regular, Poppins" font-weight="normal">
                    <text id="20/05" fill="#797979">
                        <tspan x="0.8447" y="11.9291061">20/05</tspan>
                    </text>
                    <text id="Doing" fill="#929292">
                        <tspan x="88.3716" y="11.9291061">Doing</tspan>
                    </text>
                    <text id="Weekly-Fire-..." fill="#797979">
                        <tspan x="171.8877" y="11.9291061">Weekly Fire ...</tspan>
                    </text>
                </g>
                <path d="M260.114,163.237 C260.114,208.435 296.755,245.075 341.952,245.075 L341.952,245.075 C387.15,245.075 423.79,208.435 423.79,163.237 L423.79,163.237 C423.79,118.039 387.15,81.399 341.952,81.399 L341.952,81.399 C296.755,81.399 260.114,118.039 260.114,163.237" id="Fill-21" fill="#6BBA4C"></path>
                <path d="M370.172,86.418 C361.183,83.116 351.988,81.497 342.928,81.389 L342.833,163.238 L370.937,86.71 C370.681,86.614 370.429,86.513 370.172,86.418" id="Fill-23" fill="#54405C"></path>
                <path d="M342.833,163.238 L394.91,100.852 C394.701,100.675 394.498,100.495 394.287,100.32 L394.287,100.32 C386.925,94.196 378.805,89.588 370.305,86.45 L370.305,86.45 L342.833,163.238 Z" id="Fill-25" fill="#C61785"></path>
                <path d="M190,219 L315.5,219 C317.7,219 319.5,217.2 319.5,215 L319.5,199 C319.5,196.8 317.7,195 315.5,195 L303.871,195 L300.875,192 L297.871,195 L190,195 C187.8,195 186,196.8 186,199 L186,215 C186,217.2 187.8,219 190,219" id="Fill-27" fill-opacity="0.8" fill="#000000"></path>
                <text id="performance-indicator" font-family="Poppins-Regular, Poppins" font-size="10" font-weight="normal" fill="#FFFFFF">
                    <tspan x="198" y="210">performance indicator</tspan>
                </text>
                <polygon id="Fill-1" fill="#F3F3F3" points="0 29.839 342.583 29.839 342.583 0 0 0"></polygon>
                <g id="Group" transform="translate(16.000000, 6.000000)" font-size="10" font-family="Poppins-Regular, Poppins" font-weight="normal">
                    <text id="Overdue" fill="#C61785">
                        <tspan x="0.8447" y="11.4875061">Overdue</tspan>
                    </text>
                    <text id="Pending" fill="#929292">
                        <tspan x="88.3716" y="11.4875061">Pending</tspan>
                    </text>
                    <text id="Fire-alarm-..." fill="#797979">
                        <tspan x="171.8877" y="11.4875061">Fire alarm ...</tspan>
                    </text>
                </g>
            </g>
        </g>
    </g>
</svg>