<?xml version="1.0" encoding="UTF-8" standalone="no"?>
<svg width="425px" height="297px" viewBox="0 0 425 297" version="1.1" xmlns="http://www.w3.org/2000/svg" xmlns:xlink="http://www.w3.org/1999/xlink">
    <!-- Generator: Sketch 3.8.3 (29802) - http://www.bohemiancoding.com/sketch -->
    <title>Portfolio/SignatureCapture</title>
    <desc>Created with Sketch.</desc>
    <defs>
        <rect id="path-1" x="31" y="41" width="193" height="133"></rect>
        <mask id="mask-2" maskContentUnits="userSpaceOnUse" maskUnits="objectBoundingBox" x="0" y="0" width="193" height="133" fill="white">
            <use xlink:href="#path-1"></use>
        </mask>
    </defs>
    <g id="Vectors" stroke="none" stroke-width="1" fill="none" fill-rule="evenodd">
        <g id="Portfolio/SignatureCapture">
            <polygon id="Fill-1" fill="#F3F3F3" points="0 214 342 214 342 0 0 0"></polygon>
            <polygon id="Fill-2" fill="#EBEBEB" points="0 103.625789 0.236101482 215 26.1462383 215 83.0386921 215 342 215 195.244921 85.0757687 139.373906 133.904363 54.5934656 49"></polygon>
            <use id="Rectangle-1" stroke="#6BBA4C" mask="url(#mask-2)" stroke-width="2" stroke-dasharray="4,2" xlink:href="#path-1"></use>
            <path d="M318,55 C318,75.435 301.435,92 281,92 C260.565,92 244,75.435 244,55 C244,34.565 260.565,18 281,18 C301.435,18 318,34.565 318,55 L318,55 Z" id="Fill-3" fill="#EBEBEB"></path>
            <path d="M31,174 L224,174 L224,41 L31,41 L31,174 Z M0,215 L342,215 L342,0 L0,0 L0,215 Z" id="Fill-5" fill-opacity="0.100769928" fill="#000000"></path>
            <polyline id="Stroke-7" stroke="#000000" stroke-linecap="round" stroke-linejoin="round" points="224 173 224 174 223 174"></polyline>
            <polyline id="Stroke-11" stroke="#000000" stroke-linecap="round" stroke-linejoin="round" points="32 174 31 174 31 173"></polyline>
            <polyline id="Stroke-15" stroke="#000000" stroke-linecap="round" stroke-linejoin="round" points="31 42 31 41 32 41"></polyline>
            <polyline id="Stroke-19" stroke="#000000" stroke-linecap="round" stroke-linejoin="round" points="223 41 224 41 224 42"></polyline>
            <path d="M224,26 L224,34" id="Stroke-23" stroke="#6BBA4C" stroke-linecap="round" stroke-linejoin="round"></path>
            <polygon id="Fill-25" fill="#F3F3F3" points="29 43 33 43 33 39 29 39"></polygon>
            <polygon id="Stroke-27" stroke="#6BBA4C" stroke-linecap="round" stroke-linejoin="round" points="29 43 33 43 33 39 29 39"></polygon>
            <polygon id="Fill-28" fill="#F3F3F3" points="30 175 34 175 34 171 30 171"></polygon>
            <polygon id="Stroke-29" stroke="#6BBA4C" stroke-linecap="round" stroke-linejoin="round" points="30 175 34 175 34 171 30 171"></polygon>
            <polygon id="Fill-30" fill="#F3F3F3" points="223 43 227 43 227 39 223 39"></polygon>
            <polygon id="Stroke-31" stroke="#6BBA4C" stroke-linecap="round" stroke-linejoin="round" points="223 43 227 43 227 39 223 39"></polygon>
            <g id="Group-35" transform="translate(261.000000, 134.000000)">
                <path d="M81.278,0 C36.39,0 0,36.389 0,81.277 L0,81.277 L0,81.723 C0,126.611 36.39,163 81.278,163 L81.278,163 L81.723,163 C126.612,163 163,126.611 163,81.723 L163,81.723 L163,81.277 C163,36.389 126.612,0 81.723,0 L81.723,0 L81.278,0 Z" id="Fill-33" fill="#6BBA4C"></path>
                <path d="M45.0571566,97.1910771 C40.6175186,101.622507 36.9558263,105.45439 35.5674304,107.077577 C30.1742794,113.382839 24.9940291,118.266435 24.0556511,117.988719 C24.0062096,117.922548 23.6308584,117.199684 25.7830738,112.540667 C29.2601175,105.01225 38.440078,94.6284676 48.1588491,83.6351134 C50.1032087,81.43544 52.0637124,79.21772 54,77 C50.8851904,83.9358891 47.681588,91.1996239 45.0571566,97.1910771 M65.8590233,53.3067313 C68.2881596,50.0151435 73.7883018,45.0314984 74.9937149,45 C75.0506796,45.3553419 74.8197692,47.0365715 70.0154097,54.3688196 C66.5690472,59.628076 61.9833913,65.2712198 57,71 C61.1136629,62.1981525 64.6475069,54.9476035 65.8590233,53.3067313 M139.470967,85.7628058 C138.101725,85.8486127 136.184786,86.7665468 134.332574,87.6545482 C132.572974,88.4976506 130.164103,89.654048 129.645285,89.1791169 C129.578566,89.1192516 129.279822,88.7231431 129.947016,86.8992481 C130.912954,84.2621832 130.95677,82.7026931 130.08643,81.9942875 C128.905396,81.0314545 126.629965,82.2616857 125.020732,83.2694176 C124.641327,83.5068832 124.164333,83.8221736 123.562862,84.2202776 C121.246603,85.7518305 116.937722,88.6034126 108.961264,93.0643725 C102.688641,96.5714791 101.837221,96.0017614 101.813322,95.9917838 C101.758552,95.857087 101.950744,95.3013378 102.375956,94.7336155 C102.540265,94.5141096 102.751377,94.158909 103.071033,93.6201216 C104.23713,91.656541 106.662929,87.5717345 112.149855,80.9755803 C116.711672,75.4909244 116.583213,74.4632374 116.105223,73.9294388 C115.598354,73.3617166 114.437237,73.6800002 112.655728,74.8703212 C111.981563,75.3203084 109.350627,76.9536324 105.70894,79.213546 C98.2433342,83.8461197 85.7478792,91.599669 76.3025978,97.7518226 C71.1781468,101.090309 69.3677597,101.216026 68.7483643,100.726128 C67.4388709,99.6964459 69.2681784,94.4732016 71.0367414,89.4235667 C71.6451828,87.6844808 72.2745363,85.8875251 72.8521076,84.0775987 C74.7869712,78.0202318 75.1185768,75.6974596 74.1675758,74.8703212 C73.3091855,74.1259964 71.86227,74.8284155 69.6714825,75.8920217 C69.1476851,76.1464491 68.5810678,76.4208315 67.9756138,76.7002027 C64.4773246,78.3065873 54.7313078,87.4290557 46.7040634,95.4160795 C49.4883551,89.0234672 52.7834986,81.5143677 55.877488,74.606914 C61.6332842,67.8720719 67.0196339,61.1881153 70.9341727,55.0020381 C77.1380845,45.1991012 76.1074186,44.5026687 75.552751,44.1295085 C73.7762215,42.9182347 66.8284379,50.5490602 65.2142258,52.8099717 C63.8439879,54.7326444 59.6556006,63.7303935 55.0181018,74.079102 C52.415048,77.1232506 49.7363124,80.1773768 47.0864554,83.1995748 C37.444999,94.1968237 28.3382939,104.583447 24.8459795,112.207288 C22.5008411,117.326766 22.8115346,118.438264 23.4966536,118.875281 C23.6290966,118.96009 23.7874308,119 23.9666771,119 C26.3227694,119 32.5137356,112.139441 36.16538,107.835128 C37.3045894,106.492151 40.1227388,103.503877 43.6658396,99.9009855 C41.1105847,105.795718 39.3101558,109.996264 39.0582152,110.583942 C38.9496717,110.837371 39.0661817,111.130711 39.3191181,111.238469 C39.5720545,111.350217 39.8638275,111.230487 39.9733669,110.977057 C40.0450654,110.809434 42.3663043,105.394621 45.6066781,97.9374049 C53.8619636,89.6390816 64.7900097,79.2604405 68.3908676,77.6061637 C69.0022965,77.3257947 69.5758845,77.0474213 70.1056567,76.7900006 C71.5356435,76.0955636 73.1558304,75.3123264 73.5143229,75.6246235 C74.2910566,76.2981077 72.4946109,81.9254425 71.9040941,83.7742814 C71.3305061,85.5692415 70.7031442,87.3602106 70.0966944,89.09331 C67.9547018,95.2075489 66.2638122,100.038676 68.1329522,101.510363 C69.456387,102.554014 72.1430891,101.651047 76.8453156,98.5879407 C86.2816347,92.4427715 98.7711148,84.6922154 106.232738,80.0616373 C109.883386,77.7967348 112.520298,76.1604176 113.208404,75.7004528 C114.234091,75.0149956 114.989913,74.6997052 115.315543,74.651813 C115.243845,75.041935 114.702123,76.3469977 111.384076,80.3360197 C105.848354,86.993037 103.394672,91.1247379 102.21563,93.1102692 C101.922861,93.6021621 101.711749,93.9593581 101.579306,94.1349629 C101.286537,94.5260826 100.382339,95.8640713 101.056504,96.6373309 C101.63308,97.2968466 103.079995,97.4944019 109.446225,93.935412 C117.455544,89.4564926 121.784341,86.5919397 124.110559,85.0534025 C124.704063,84.6602872 125.174087,84.3499856 125.548512,84.1145156 C128.387574,82.3365173 129.229035,82.5809671 129.459068,82.7695427 C129.628356,82.9072328 130.09838,83.588699 129.012944,86.5570183 C128.37662,88.2941087 128.36467,89.3617059 128.975103,89.9184529 C129.989836,90.8413757 132.094984,89.8316482 134.761769,88.5545226 C136.529337,87.7074291 138.356653,86.8323985 139.533703,86.7585647 C139.807551,86.7406051 140.016672,86.5041374 139.998747,86.2287571 C139.981819,85.9543747 139.733861,85.7238934 139.470967,85.7628058" id="Page-1" fill="#FFFFFF"></path>
            </g>
            <path d="M239,41 L231,41" id="Stroke-38" stroke="#6BBA4C" stroke-linecap="round" stroke-linejoin="round"></path>
            <path d="M17,41 L25,41" id="Stroke-40" stroke="#6BBA4C" stroke-linecap="round" stroke-linejoin="round"></path>
            <path d="M31,26 L31,34" id="Stroke-42" stroke="#6BBA4C" stroke-linecap="round" stroke-linejoin="round"></path>
            <path d="M32,188 L32,180" id="Stroke-44" stroke="#6BBA4C" stroke-linecap="round" stroke-linejoin="round"></path>
            <path d="M17,173 L25,173" id="Stroke-46" stroke="#6BBA4C" stroke-linecap="round" stroke-linejoin="round"></path>
            <path d="M239,174 L231,174" id="Stroke-48" stroke="#6BBA4C" stroke-linecap="round" stroke-linejoin="round"></path>
            <polygon id="Fill-50" fill="#F3F3F3" points="222 176 226 176 226 172 222 172"></polygon>
            <polygon id="Stroke-52" stroke="#6BBA4C" stroke-linecap="round" stroke-linejoin="round" points="222 176 226 176 226 172 222 172"></polygon>
            <path d="M225,189 L225,181" id="Stroke-53" stroke="#6BBA4C" stroke-linecap="round" stroke-linejoin="round"></path>
            <polygon id="Fill-54" fill="#666666" points="416.495587 283.732516 410.220115 273.361373 419 270.222203 397.019916 259 397 284.06969 403.440773 277.628857 409.716245 288"></polygon>
        </g>
    </g>
</svg>